<svg xmlns="http://www.w3.org/2000/svg" xmlns:xlink="http://www.w3.org/1999/xlink" version="1.2" baseProfile="tiny" x="0px" y="0px" viewBox="0 0 100 125" xml:space="preserve"><path d="M30,45v13.455c0,0.388,0.091,0.771,0.264,1.118l2.089,4.177l-1.941,3.882c-0.352,0.704-0.352,1.532,0,2.236l1.941,3.881   l-1.818,3.635c-0.481,0.962-0.292,2.125,0.469,2.886L35,84.268C35.469,84.737,36.104,85,36.768,85H40c0,5.514,4.486,10,10,10   s10-4.486,10-10h3.081c0.836,0,1.616-0.418,2.08-1.113l4.227-6.34c0.498-0.747,0.558-1.703,0.156-2.505l-1.896-3.792l1.941-3.882   c0.352-0.704,0.352-1.532,0-2.236l-1.941-3.882l2.089-4.177C69.909,56.726,70,56.343,70,55.955V45c0-0.005-0.001-0.01-0.002-0.015   C73.137,40.806,75,35.617,75,30C75,16.215,63.785,5,50,5S25,16.215,25,30c0,5.617,1.863,10.806,5.002,14.985   C30.001,44.99,30,44.995,30,45z M50,90c-2.757,0-5-2.243-5-5h10C55,87.757,52.757,90,50,90z M61.743,80h-23.94l-1.99-1.991   l0.943-1.886l26.618-2.24l1.049,2.097L61.743,80z M63.244,68.876l-26.618,2.24l-1.184-2.366l1.314-2.626l26.618-2.24l1.184,2.367   L63.244,68.876z M65,55.365l-1.756,3.512l-26.618,2.24L35,57.865V47.5h30V55.365z M30,30c0-11.028,8.972-20,20-20s20,8.972,20,20   c0,4.729-1.658,9.073-4.412,12.5h-9.26l3.598-14.394c0.334-1.339-0.479-2.697-1.819-3.032c-1.341-0.333-2.697,0.479-3.032,1.819   L51.173,42.5h-2.345l-3.902-15.606c-0.335-1.34-1.7-2.152-3.032-1.819c-1.34,0.335-2.153,1.692-1.819,3.032L43.673,42.5h-9.26   C31.658,39.073,30,34.729,30,30z"/><text x="0" y="115" fill="#000000" font-size="5px" font-weight="bold" font-family="'Helvetica Neue', Helvetica, Arial-Unicode, Arial, Sans-serif">Created by Arthur Shlain</text><text x="0" y="120" fill="#000000" font-size="5px" font-weight="bold" font-family="'Helvetica Neue', Helvetica, Arial-Unicode, Arial, Sans-serif">from the Noun Project</text></svg>