<svg xmlns="http://www.w3.org/2000/svg" xmlns:xlink="http://www.w3.org/1999/xlink" version="1.1" x="0px" y="0px" viewBox="0 0 100 125" style="enable-background:new 0 0 100 100;" xml:space="preserve"><path d="M38.2,48.4L12.5,70.8c-0.6-1-1-2.1-1-3.3v-35c0-1.8,0.8-3.5,2.1-4.6L38.2,48.4z M54.8,54.2c-2.8,2.3-6.8,2.3-9.6,0l-4.6-3.9  L14.8,72.8c0.8,0.4,1.7,0.7,2.7,0.7h65c1,0,1.9-0.2,2.7-0.7L59.4,50.4L54.8,54.2z M86.4,27.9L61.8,48.4l25.7,22.4c0.6-1,1-2.1,1-3.3  v-35C88.5,30.7,87.7,29,86.4,27.9z M54.2,49.6l32.1-21.8c-1-0.8-2.3-1.3-3.8-1.3h-65c-1.4,0-2.7,0.5-3.8,1.3l32.1,21.8  C48.3,51.4,51.7,51.4,54.2,49.6z"/><text x="0" y="115" fill="#000000" font-size="5px" font-weight="bold" font-family="'Helvetica Neue', Helvetica, Arial-Unicode, Arial, Sans-serif">Created by Setyo Ari Wibowo</text><text x="0" y="120" fill="#000000" font-size="5px" font-weight="bold" font-family="'Helvetica Neue', Helvetica, Arial-Unicode, Arial, Sans-serif">from the Noun Project</text></svg>