<svg xmlns:dc="http://purl.org/dc/elements/1.1/" xmlns:cc="http://creativecommons.org/ns#" xmlns:rdf="http://www.w3.org/1999/02/22-rdf-syntax-ns#" xmlns:svg="http://www.w3.org/2000/svg" xmlns="http://www.w3.org/2000/svg" xmlns:sodipodi="http://sodipodi.sourceforge.net/DTD/sodipodi-0.dtd" xmlns:inkscape="http://www.inkscape.org/namespaces/inkscape" version="1.1" x="0px" y="0px" viewBox="0 0 100 125"><g transform="translate(0,-952.36218)"><path style="color:#000000;enable-background:accumulate;" d="m 50,977.36218 43,17 L 50,1011.3622 6.9999995,994.36218 50,977.36218 z m 40,20.3125 0,11.12502 c -0.614301,-0.2726 -1.290801,-0.4375 -2,-0.4375 -0.7092,0 -1.3857,0.1649 -2,0.4375 l 0,-9.53132 4,-1.5937 z m -13,5.15622 0,14.5313 c 0,4.1862 -12.042001,10 -27,10 -14.958,0 -27,-5.8138 -27,-10 l 0,-14.5313 26.25,10.375 a 2.0001996,2.0001996 0 0 0 1.5,0 L 77,1002.8309 z m 11,7.5313 c 1.6569,0 3,1.3431 3,3 0,1.6568 -1.3431,3 -3,3 -1.656901,0 -3,-1.3432 -3,-3 0,-1.6569 1.343099,-3 3,-3 z" fill="#000000" stroke="none" marker="none" visibility="visible" display="inline" overflow="visible"/></g><text x="0" y="115" fill="#000000" font-size="5px" font-weight="bold" font-family="'Helvetica Neue', Helvetica, Arial-Unicode, Arial, Sans-serif">Created by Rockicon</text><text x="0" y="120" fill="#000000" font-size="5px" font-weight="bold" font-family="'Helvetica Neue', Helvetica, Arial-Unicode, Arial, Sans-serif">from the Noun Project</text></svg>