<svg xmlns="http://www.w3.org/2000/svg" xmlns:xlink="http://www.w3.org/1999/xlink" version="1.1" x="0px" y="0px" viewBox="0 0 100 125" enable-background="new 0 0 100 100" xml:space="preserve"><g><path d="M74.821,67.442l-9.247-9.248c-0.449-0.449-1.019-0.654-1.651-0.594l-1.537,0.146c-0.495,0.047-0.907,0.24-1.259,0.594   c-0.455,0.454-0.861,0.859-1.239,1.236L73.77,73.46l1.127-1.127c0.42-0.419,0.623-0.938,0.602-1.532l-0.076-1.982   C75.402,68.28,75.202,67.823,74.821,67.442z"/><path d="M43.374,40.736c0.397-0.397,0.6-0.88,0.603-1.442l0.011-1.823c0.003-0.571-0.198-1.063-0.603-1.467l-9.325-9.326   c-0.381-0.381-0.838-0.581-1.377-0.601L30.7,26.002c-0.593-0.022-1.112,0.181-1.533,0.601l-1.126,1.127l14.17,14.17   C42.566,41.544,42.949,41.162,43.374,40.736z"/><path d="M57.686,61.775c-0.472,0.47-1.078,0.673-1.737,0.581l-1.391-0.195c-0.463-0.064-0.842-0.252-1.172-0.582l-6.7-6.701   l-0.002,0.002l-6.199-6.2c-0.288-0.288-0.463-0.605-0.553-1.003l-0.394-1.744c-0.159-0.708,0.038-1.392,0.55-1.905   c0.198-0.199,0.442-0.443,0.71-0.712L26.627,29.144l-1.287,1.288c-4.934,4.934,4.687,23.329,13.753,32.396l0.289,0.286l0.009,0.008   c9.066,9.066,26.746,17.971,31.68,13.037l1.285-1.285L58.473,60.991C58.172,61.291,57.899,61.563,57.686,61.775z"/><path d="M74.653,26.349C74.332,26.13,73.944,26,73.526,26l-11.314,0c-1.104,0-2,0.896-2,2s0.896,2,2,2l6.983,0L52.573,46.623   c-0.781,0.781-0.781,2.047,0,2.828c0.391,0.391,0.902,0.586,1.414,0.586s1.023-0.196,1.414-0.586L72,32.852v6.693   c0,1.104,0.896,2,2,2s2-0.896,2-2V28.231C76,27.356,75.436,26.621,74.653,26.349z"/></g><text x="0" y="115" fill="#000000" font-size="5px" font-weight="bold" font-family="'Helvetica Neue', Helvetica, Arial-Unicode, Arial, Sans-serif">Created by Nikita Kozin</text><text x="0" y="120" fill="#000000" font-size="5px" font-weight="bold" font-family="'Helvetica Neue', Helvetica, Arial-Unicode, Arial, Sans-serif">from the Noun Project</text></svg>