<svg xmlns="http://www.w3.org/2000/svg" xmlns:xlink="http://www.w3.org/1999/xlink" version="1.1" x="0px" y="0px" viewBox="0 0 48 60" style="enable-background:new 0 0 48 48;" xml:space="preserve"><title>Png 48px Solid - 70 Basic Icons</title><g><path d="M24,1C14.1,1,6,8.8,6,18.4c0,3.8,1.3,7.4,3.6,10.4l13.6,17.8c0.3,0.4,1,0.5,1.4,0.2c0.1-0.1,0.1-0.1,0.2-0.2   l13.6-17.8c2.3-3,3.6-6.6,3.6-10.4C42,8.8,33.9,1,24,1z M22.6,25.2c-3.8-0.8-6.3-4.4-5.5-8.2c0.8-3.8,4.4-6.3,8.2-5.5   c2.8,0.6,5,2.7,5.5,5.5c0.7,3.8-1.8,7.5-5.5,8.2C24.4,25.4,23.5,25.4,22.6,25.2z"/></g><text x="0" y="63" fill="#000000" font-size="5px" font-weight="bold" font-family="'Helvetica Neue', Helvetica, Arial-Unicode, Arial, Sans-serif">Created by Xicons.co</text><text x="0" y="68" fill="#000000" font-size="5px" font-weight="bold" font-family="'Helvetica Neue', Helvetica, Arial-Unicode, Arial, Sans-serif">from the Noun Project</text></svg>