<svg xmlns="http://www.w3.org/2000/svg" xmlns:xlink="http://www.w3.org/1999/xlink" version="1.1" x="0px" y="0px" viewBox="0 0 100 125" style="enable-background:new 0 0 100 100;" xml:space="preserve"><path d="M93.5,61.4C94.5,57.8,95,54,95,50c0-14.6-7-27.6-17.8-35.8c-0.1-0.1-0.3-0.2-0.4-0.3c-7-5.2-15.6-8.4-24.9-8.8  c-0.1,0-0.2,0-0.3,0c-0.5,0-1,0-1.6,0c-12.4,0-23.7,5.1-31.8,13.2c-0.1,0.1-0.2,0.2-0.3,0.4C9.9,26.7,5,37.8,5,50  c0,24.8,20.2,45,45,45c20.7,0,38.2-14.1,43.4-33.2C93.5,61.7,93.5,61.6,93.5,61.4z M91.7,50c0,2.4-0.2,4.7-0.6,6.9l-2.9-4.3  l-3.3-9.8c-0.2-0.5-0.6-1-1.2-1.1l-12.6-3.1l-2.6-5.1l6.1-9.2c0.1-0.1,0.1-0.3,0.2-0.4l1.9-5.7C85.9,25.8,91.7,37.2,91.7,50z   M50.6,8.3l4.3,8.6L52.3,30l-1.1-1.1c-0.7-0.7-1.7-0.7-2.4,0l-6.7,6.7c-0.4,0.4-0.6,1.1-0.4,1.7l3.3,10c0.2,0.6,0.7,1,1.3,1.1  l9.6,1.6l5.1,3.9l-4.2,7c-0.1,0.1-0.1,0.3-0.2,0.4l-3.2,11.3l-5.9,7.1L45,66.3c-0.1-0.4-0.3-0.8-0.6-1l-6-4.5v-3.7l4.8-7.9  c0.3-0.5,0.3-1.2,0-1.7c-0.3-0.5-0.9-0.8-1.6-0.8L24,48.3l-8.8-8.8l5.4-19.1C28.2,13,38.6,8.3,50,8.3C50.2,8.3,50.4,8.3,50.6,8.3z   M50,91.7C27,91.7,8.3,73,8.3,50c0-8.5,2.6-16.5,7-23.1l-3.6,12.6c-0.2,0.6,0,1.2,0.4,1.6l10,10c0.3,0.3,0.8,0.5,1.3,0.5l15.1-1.4  l-3.3,5.5c-0.2,0.3-0.2,0.6-0.2,0.9v5c0,0.5,0.2,1,0.7,1.3l6.2,4.6l3.2,16c0.1,0.6,0.6,1.1,1.2,1.3c0.1,0,0.3,0.1,0.4,0.1  c0.5,0,1-0.2,1.3-0.6l8.3-10c0.1-0.2,0.3-0.4,0.3-0.6l3.3-11.5l4.9-8.1c0.4-0.7,0.3-1.7-0.4-2.2l-6.7-5c-0.2-0.2-0.5-0.3-0.7-0.3  l-9-1.5l-2.7-8.1l4.8-4.8l2.2,2.2c0.4,0.4,1.1,0.6,1.7,0.4c0.6-0.2,1-0.7,1.2-1.3L58.3,17c0.1-0.4,0-0.7-0.1-1.1l-3.7-7.3  C61.7,9.4,68.4,12,74,16l-2.2,6.6l-6.5,9.8c-0.3,0.5-0.4,1.1-0.1,1.7l3.3,6.7c0.2,0.4,0.6,0.8,1.1,0.9L82,44.7l3,9.1  c0,0.1,0.1,0.3,0.2,0.4l4.8,7.2C85.1,78.9,69,91.7,50,91.7z"/><text x="0" y="115" fill="#000000" font-size="5px" font-weight="bold" font-family="'Helvetica Neue', Helvetica, Arial-Unicode, Arial, Sans-serif">Created by Yoshi</text><text x="0" y="120" fill="#000000" font-size="5px" font-weight="bold" font-family="'Helvetica Neue', Helvetica, Arial-Unicode, Arial, Sans-serif">from the Noun Project</text></svg>